<?xml version="1.0" encoding="iso-8859-1"?>
<!-- Generator: Adobe Illustrator 19.0.0, SVG Export Plug-In . SVG Version: 6.00 Build 0)  -->
<svg version="1.1" id="Capa_1" xmlns="http://www.w3.org/2000/svg" xmlns:xlink="http://www.w3.org/1999/xlink" x="0px" y="0px"
	 viewBox="0 0 512 512" style="enable-background:new 0 0 512 512;" xml:space="preserve">
<circle style="fill:#963B11;" cx="256" cy="256" r="256"/>
<path style="fill:#83360B;" d="M99.917,340.167l171.367,171.367C405.551,503.625,512,392.252,512,256
	c0-8.321-0.411-16.546-1.188-24.664l-81.15-81.15L99.917,340.167z"/>
<path style="fill:#FF8257;" d="M199.91,118.333c-74.852,0-135.324,61.568-133.538,136.825
	c1.726,72.732,62.467,131.213,135.214,130.319c50.059-0.615,93.481-28.77,115.83-70.013c11.053-20.397,31.579-33.751,54.701-35.652
	c0.315-0.026,0.63-0.054,0.946-0.083c39.042-3.655,70.163-35.5,72.939-74.614c3.358-47.337-34.049-86.781-80.669-86.781
	L199.91,118.333L199.91,118.333z"/>
<path style="fill:#F05E3A;" d="M365.332,118.333h-109.76v255.021c26.35-12.099,48.091-32.51,61.845-57.891
	c11.053-20.397,31.579-33.751,54.701-35.652c0.315-0.026,0.63-0.053,0.945-0.083c39.042-3.655,70.163-35.5,72.938-74.614
	C449.359,157.778,411.952,118.333,365.332,118.333z"/>
<circle style="fill:#FFD2BF;" cx="182.25" cy="251.91" r="34.33"/>
<rect x="206.12" y="192.75" transform="matrix(-0.7071 -0.7071 0.7071 -0.7071 339.0575 553.9415)" style="fill:#F05E3A;" width="156.269" height="28"/>
<g>
	<polygon style="fill:#DE4726;" points="349.399,252.101 255.571,158.273 255.571,197.87 329.601,271.899 	"/>
	
		<rect x="299.554" y="172.368" transform="matrix(-0.7071 -0.7071 0.7071 -0.7071 463.7825 564.8414)" style="fill:#DE4726;" width="98.639" height="28"/>
</g>
<g>
</g>
<g>
</g>
<g>
</g>
<g>
</g>
<g>
</g>
<g>
</g>
<g>
</g>
<g>
</g>
<g>
</g>
<g>
</g>
<g>
</g>
<g>
</g>
<g>
</g>
<g>
</g>
<g>
</g>
</svg>
